<svg xmlns="http://www.w3.org/2000/svg" width="32" height="32" viewBox="0 0 32 32"><path d="M31.91 12.59c-.65 2.1-1.76 3.92-3.39 5.55-1.91 1.92-4.25 3.28-6.52 4.59-2.13 1.24-4.15 2.41-5.69 3.96-1.16 1.15-1.95 2.43-2.4 3.9-.1.32-.27.6-.5.82-.25.26-.57.44-.93.53-.68.17-1.4-.03-1.89-.53l-10-10c-.53-.52-.72-1.29-.5-2 .65-2.11 1.76-3.92 3.39-5.55 1.91-1.92 4.25-3.28 6.52-4.59 2.13-1.24 4.15-2.41 5.69-3.96 1.16-1.16 1.95-2.43 2.4-3.9.1-.32.27-.6.5-.83.25-.25.57-.43.93-.52.68-.17 1.4.03 1.89.52l10 10.01c.53.52.72 1.29.5 2zM20 2c-2.84 9.2-15.16 8.8-18 18l10 10c2.84-9.2 15.16-8.8 18-18L20 2zm1.23 3.79l-.68.93c-.43.59-.92 1.16-1.47 1.7-.56.57-1.17 1.07-1.79 1.55h-.01c-.2.19-.51.18-.7-.01a.526.526 0 0 1 0-.72c.04-.03.08-.06.12-.08.59-.45 1.15-.92 1.68-1.45.5-.5.96-1.03 1.36-1.58l.66-.91c.03-.04.05-.08.09-.12.2-.2.52-.2.71 0 .19.19.2.49.03.68v.01zm-4.86 7.07c-.13.11-.29.15-.47.12-.18-.04-.37-.08-.58-.13a2.03 2.03 0 0 0-.65-.07c-.23.01-.46.12-.71.34.54.56 1.08 1.17 1.61 1.79.34-.16.68-.31 1.02-.44.33-.13.67-.2 1-.23.33-.02.66.02.99.11.33.09.65.28.98.55.29.24.49.48.6.77.11.28.15.59.12.94-.04.34-.14.72-.32 1.1-.18.38-.42.77-.72 1.14.18.15.35.3.53.44.07.06.11.14.12.25.01.1-.02.2-.09.29-.07.09-.16.14-.27.14-.11.01-.2-.02-.27-.09-.18-.15-.35-.32-.53-.49-.36.37-.73.61-1.1.75-.37.13-.72.18-1.05.16-.33-.02-.63-.1-.9-.23s-.49-.29-.66-.48c-.17-.19-.25-.38-.25-.56 0-.19.08-.36.24-.5.16-.14.31-.2.45-.2.13 0 .27.04.39.1.13.07.27.14.4.23.13.1.28.17.43.21.16.05.33.05.52.01.2-.04.42-.16.67-.37-.6-.63-1.19-1.3-1.78-1.99-.74.4-1.43.59-2.07.63-.64.04-1.2-.13-1.67-.52-.29-.24-.49-.49-.59-.79-.11-.3-.15-.62-.11-.97.04-.34.14-.7.31-1.06.16-.36.37-.7.63-1.01l-.2-.17a.352.352 0 0 1-.12-.25c-.02-.1.02-.2.09-.29.07-.08.16-.13.27-.13.11 0 .2.03.27.1.07.06.13.12.2.19.17-.17.39-.35.68-.51.28-.17.59-.29.9-.36.32-.07.63-.08.93-.02.31.05.56.2.77.44.17.19.24.38.23.58a.66.66 0 0 1-.24.48zm2 5.16c.12-.13.23-.27.32-.44.09-.17.15-.33.18-.5.02-.17.02-.33-.02-.49-.03-.16-.12-.3-.26-.44a1 1 0 0 0-.46-.27 1.16 1.16 0 0 0-.49-.02c-.17.02-.33.07-.49.14-.16.07-.31.13-.46.2.56.63 1.12 1.26 1.68 1.82zm-4.92-4.41c-.14.15-.25.31-.32.47-.08.16-.13.32-.14.47-.01.15 0 .29.04.41.04.13.1.24.2.33.21.21.46.3.74.29.28-.01.62-.13 1-.34-.51-.57-1.01-1.12-1.52-1.63zm1.27 8.57c.19-.16.48-.15.67.03.19.2.19.52 0 .71-.02.02-.04.03-.05.04-.64.48-1.16.92-1.72 1.48-.5.5-.96 1.04-1.36 1.58l-.64.87a.36.36 0 0 1-.07.1c-.2.2-.52.2-.71 0a.501.501 0 0 1-.07-.62v-.01l.68-.93c.43-.58.92-1.16 1.47-1.7.56-.56 1.17-1.07 1.8-1.55z" fill="#0C0C0C"/></svg>