<svg xmlns="http://www.w3.org/2000/svg" width="28" height="40" viewBox="0 0 28 40"><path d="M21.46 28.85C18.96 35.83 19.31 40 14 40c-5.23 0-4.96-4.19-7.46-11.18C4.86 24.13.25 18.79.25 13.75.25 6.15 6.41 0 14 0s13.75 6.15 13.75 13.75c0 5-4.6 10.4-6.29 15.1zM14 37.5c1.48 0 2.03-.16 2.8-2.23l-5.3.67c.65 1.41 1.23 1.56 2.5 1.56zm-3.7-5.12c.28.97.52 1.72.74 2.36l6.2-.77c.14-.44.29-.93.45-1.49.1-.35.22-.74.33-1.11l-7.74.97c.01.01.01.02.02.04zm-.38-1.25l8.5-1.06c.13-.42.29-.87.44-1.32H9.15c.29.84.54 1.63.77 2.38zM14 2.5C7.8 2.5 2.75 7.54 2.75 13.75c0 2.54 1.69 5.56 3.32 8.48.73 1.32 1.48 2.67 2.1 4.02h11.67c.62-1.34 1.36-2.69 2.09-4.01 1.63-2.93 3.32-5.97 3.32-8.49C25.25 7.54 20.2 2.5 14 2.5zm0 5c-3.45 0-6.25 2.8-6.25 6.25a.625.625 0 0 1-1.25 0c0-4.14 3.36-7.5 7.5-7.5.35 0 .62.28.62.62 0 .35-.27.63-.62.63z" fill="#0D0D0D"/></svg>