<svg xmlns="http://www.w3.org/2000/svg" width="28" height="32" viewBox="0 0 28 32"><path d="M26.11 5.02L24.9 1.37A2.01 2.01 0 0 0 23 0H5a2 2 0 0 0-1.9 1.37L1.88 5.02C.83 5.09 0 5.94 0 7v3c0 1.1.9 2 2 2h1.03c0 .07-.03.14-.02.22l2 18C5.12 31.23 5.98 32 7 32h14c1.02 0 1.88-.77 1.99-1.78l2-18c.01-.08-.02-.15-.02-.22H26c1.1 0 2-.9 2-2V7c0-1.07-.84-1.92-1.89-1.98zM5 2h18l1 3H4l1-3zm2 28l-.33-3h14.66L21 30H7zm14.44-4H6.56L5.44 16h17.12l-1.12 10zm1.23-11H5.33L5 12h18l-.33 3zM26 10H2V7h24v3z" fill="#FFF"/></svg>