<svg xmlns="http://www.w3.org/2000/svg" width="32" height="32" viewBox="0 0 32 32"><path d="M29.5 5a2.5 2.5 0 0 1 0-5 2.5 2.5 0 0 1 0 5zm0-4c-.83 0-1.5.67-1.5 1.5S28.67 4 29.5 4 31 3.33 31 2.5 30.33 1 29.5 1zm-.36 12.23c0 .67-.26 1.3-.74 1.77l-1.41 1.41c-.47.47-1.1.73-1.76.73-.5 0-.97-.14-1.37-.41l-5.34 13.38a3.02 3.02 0 0 1-2.18 1.83c-.21.04-.41.06-.61.06h-.08c-.77-.02-1.5-.33-2.04-.88L.89 18.54a3.02 3.02 0 0 1-.84-2.69 3 3 0 0 1 1.74-2.18l13.58-5.44c-.24-.4-.37-.85-.37-1.32 0-.67.26-1.29.73-1.77l1.42-1.41c.47-.47 1.1-.73 1.76-.73.67 0 1.3.26 1.77.73l7.73 7.73c.47.47.73 1.1.73 1.77zM2.6 15.5c-.3.13-.52.4-.58.73-.06.32.04.66.27.89l12.73 12.59c.18.18.43.28.68.29.08 0 .16-.01.23-.02.33-.07.6-.3.73-.61l4.73-11.84c-4.19-4.47-8.38-3.13-12.57-4.52L2.6 15.5zm24.39-2.63l-7.72-7.72c-.2-.2-.51-.2-.71 0l-1.41 1.41c-.2.2-.2.51 0 .71l1.71 1.71-8.49 3.4c.85.19 1.71.3 2.59.41 2.76.34 5.82.72 8.83 3.72l-.12.3 1.43-3.58 1.77 1.76c.2.2.51.2.71 0l1.41-1.41c.2-.2.2-.51 0-.71zM16.5 21a2.5 2.5 0 0 1 0-5 2.5 2.5 0 0 1 0 5zm0-4c-.83 0-1.5.67-1.5 1.5s.67 1.5 1.5 1.5 1.5-.67 1.5-1.5-.67-1.5-1.5-1.5zM13 24c-.55 0-1-.45-1-1s.45-1 1-1 1 .45 1 1-.45 1-1 1zm-3-5c-1.1 0-2-.9-2-2s.9-2 2-2 2 .9 2 2-.9 2-2 2zm0-3c-.55 0-1 .45-1 1s.45 1 1 1 1-.45 1-1-.45-1-1-1zm18-8c0-.55.45-1 1-1s1 .45 1 1-.45 1-1 1-1-.45-1-1z" fill="#FFF"/></svg>