<svg xmlns="http://www.w3.org/2000/svg" width="32" height="32" viewBox="0 0 32 32"><path d="M31.99 14.41l-.02.2c-.02.74-.28 1.55-.85 2.18.38.71.53 1.55.39 2.37-.22 1.33-.73 2.2-1.34 2.77.27.64.38 1.53 0 2.73-.22.72-.57 1.84-1.64 2.58.17.65.12 1.3-.03 1.76-.18.6-.41 1.05-.42 1.07-.72 1.29-1.92 1.93-3.59 1.93h-5.46c-2.78 0-5.47-.57-5.98-.69-2.37-.54-3.47-.81-4.05-.95-.02-.01-.03-.01-.05-.01-.09-.03-.17-.05-.24-.07-.01 0-.03 0-.04-.01C8.19 31.28 7.19 32 6 32H3c-1.65 0-3-1.35-3-3V13c0-1.66 1.35-3 3-3h3c.75 0 1.47.34 2 .8l-.05-.05c.1-.04.8-.39 1.05-.52 3.36-1.76 3.98-5.24 4-7.25C13.02 1.33 14.37 0 16 0c2.31 0 4.93 3.16 4.93 6.75 0 1.5-.05 2.34-.25 3.28 4.29.12 7.24.11 8.48.44 1.97.56 2.84 2.17 2.84 3.43 0 .29-.01.37-.01.51zM7 13c0-.55-.45-1-1-1H3c-.55 0-1 .45-1 1v16c0 .55.45 1 1 1h3c.55 0 1-.45 1-1V13zm21.81-.63C27.93 12.14 28 12 18 12c.83-2.47.93-2.88.93-5.25C18.93 4.12 17.06 2 16 2c-.62 0-.99.52-1 1-.04 3.4-1.43 7.55-6 9.44-.06.03-.14.06-.21.08-.49.15-.79.57-.79 1.04l.01 13.81c0 .74.84.89.84.89.26.07.48.14 4.64 1.1.07.02 2.79.64 5.54.64h5.46c1.04 0 1.52-.33 1.82-.87.01-.02.16-.32.28-.72.12-.38.07-1.41-1.03-1.41h-1.57c-.27 0-.5-.23-.5-.5 0-.28.23-.5.5-.5h1.64c2.12 0 2.32-.94 2.64-1.95.24-.76.39-2.05-1.3-2.05H25c-.28 0-.5-.23-.5-.5 0-.28.22-.5.5-.5h2.38c1.68 0 2.03-1.41 2.16-2.16.09-.6-.1-1.84-1.6-1.84H26c-.28 0-.5-.23-.5-.5 0-.28.22-.5.5-.5h2c1.75 0 1.96-.97 1.98-1.47.01-.33.02-.28.02-.63 0-.31-.09-1.21-1.19-1.53zM4.5 29c-.83 0-1.5-.67-1.5-1.5S3.67 26 4.5 26s1.5.67 1.5 1.5S5.33 29 4.5 29zm0-2c-.28 0-.5.22-.5.5 0 .27.22.5.5.5s.5-.23.5-.5c0-.28-.22-.5-.5-.5z" fill="#FFF"/></svg>