<svg xmlns="http://www.w3.org/2000/svg" width="32" height="32" viewBox="0 0 32 32"><path d="M30 13.98V29c0 1.65-1.35 3-3 3s-3-1.35-3-3V13.98c-1.21-.92-2-2.35-2-3.98s.79-3.07 2-3.98V3c0-1.65 1.35-3 3-3s3 1.35 3 3v3.02c1.21.91 2 2.35 2 3.98s-.79 3.06-2 3.98zM26 29c0 .55.45 1 1 1s1-.45 1-1V14.9c-.32.06-.66.1-1 .1-.34 0-.68-.04-1-.1V29zm2-26c0-.55-.45-1-1-1s-1 .45-1 1v2.1c.32-.07.66-.1 1-.1.34 0 .68.03 1 .1V3zm1.87 6.16c-.02-.06-.04-.11-.05-.16-.1-.26-.22-.51-.38-.74-.01 0-.01-.01-.02-.01-.17-.24-.38-.45-.61-.63-.01 0-.01-.01-.01-.01-.24-.18-.51-.32-.8-.43-.31-.11-.65-.18-1-.18s-.69.07-1 .18c-.29.11-.56.25-.8.43 0 0 0 .01-.01.01-.23.18-.44.39-.61.63-.01 0-.01.01-.02.01-.16.23-.28.48-.38.74-.02.05-.03.1-.05.16-.08.27-.13.54-.13.84 0 .29.05.57.13.84.02.05.03.1.05.16.1.26.22.51.38.73l.02.02c.17.24.38.45.61.63h.01c.24.19.51.33.8.43.31.12.65.19 1 .19s.69-.07 1-.19c.29-.1.56-.24.8-.43h.01c.23-.18.44-.39.61-.63l.02-.02c.16-.22.28-.47.38-.73.01-.06.03-.11.05-.16.08-.27.13-.55.13-.84 0-.3-.05-.57-.13-.84zM19 25.98V29c0 1.65-1.35 3-3 3s-3-1.35-3-3v-3.02c-1.21-.92-2-2.35-2-3.98s.79-3.07 2-3.98V3c0-1.65 1.35-3 3-3s3 1.35 3 3v15.02c1.21.91 2 2.35 2 3.98s-.79 3.06-2 3.98zM15 29c0 .55.45 1 1 1s1-.45 1-1v-2.1c-.32.06-.66.1-1 .1-.34 0-.68-.04-1-.1V29zm2-26c0-.55-.45-1-1-1s-1 .45-1 1v14.1c.32-.07.66-.1 1-.1.34 0 .68.03 1 .1V3zm1.87 18.16c-.02-.06-.04-.11-.05-.16-.1-.26-.22-.51-.38-.74-.01 0-.01-.01-.02-.01-.17-.24-.38-.45-.61-.63-.01 0-.01-.01-.01-.01-.24-.18-.51-.32-.8-.43-.31-.11-.65-.18-1-.18s-.69.07-1 .18c-.29.11-.56.25-.8.43 0 0 0 .01-.01.01-.23.18-.44.39-.61.63-.01 0-.01.01-.02.01-.16.23-.28.48-.38.74-.01.05-.03.1-.05.16-.08.27-.13.54-.13.84 0 .29.05.57.13.84.02.05.04.1.05.16.1.26.22.51.38.73l.02.02c.17.24.38.45.61.63h.01c.24.19.51.33.8.43.31.12.65.19 1 .19s.69-.07 1-.19c.29-.1.56-.24.8-.43h.01c.23-.18.44-.39.61-.63l.02-.02c.16-.22.28-.47.38-.73.01-.06.03-.11.05-.16.08-.27.13-.55.13-.84 0-.3-.05-.57-.13-.84zM8 13.98V29c0 1.65-1.35 3-3 3s-3-1.35-3-3V13.98C.79 13.06 0 11.63 0 10s.79-3.07 2-3.98V3c0-1.65 1.35-3 3-3s3 1.35 3 3v3.02c1.21.91 2 2.35 2 3.98s-.79 3.06-2 3.98zM4 29c0 .55.45 1 1 1s1-.45 1-1V14.9c-.32.06-.66.1-1 .1-.34 0-.68-.04-1-.1V29zM6 3c0-.55-.45-1-1-1s-1 .45-1 1v2.1c.32-.07.66-.1 1-.1.34 0 .68.03 1 .1V3zm1.87 6.16c-.02-.06-.04-.11-.05-.16-.1-.26-.22-.51-.38-.74-.01 0-.01-.01-.02-.01-.17-.24-.38-.45-.61-.63-.01 0-.01-.01-.01-.01-.24-.18-.51-.32-.8-.43C5.69 7.07 5.35 7 5 7s-.69.07-1 .18c-.29.11-.56.25-.8.43 0 0 0 .01-.01.01-.23.18-.44.39-.61.63-.01 0-.01.01-.02.01-.16.23-.28.48-.38.74-.02.05-.03.1-.05.16-.08.27-.13.54-.13.84 0 .29.05.57.13.84.02.05.03.1.05.16.1.26.22.51.38.73l.02.02c.17.24.38.45.61.63h.01c.24.19.51.33.8.43.31.12.65.19 1 .19s.69-.07 1-.19c.29-.1.56-.24.8-.43h.01c.23-.18.44-.39.61-.63l.02-.02c.16-.22.28-.47.38-.73a.75.75 0 0 1 .05-.16c.08-.27.13-.55.13-.84 0-.3-.05-.57-.13-.84z" fill="#0C0C0C"/></svg>