<svg xmlns="http://www.w3.org/2000/svg" width="32" height="28" viewBox="0 0 32 28"><path d="M28 28H4c-2.21 0-4-1.79-4-4v-7c0-.18.03-.36.08-.55l4-15C4.32.6 5.11 0 6 0h20c.89 0 1.68.6 1.92 1.45l4 15c.05.19.08.37.08.55v7c0 2.21-1.79 4-4 4zm2-11L26 2H6L2 17v7c0 1.1.9 2 2 2h24c1.1 0 2-.9 2-2v-7zm-2.81 1h-2.91-1.14-.52l-1.45 2.89A2 2 0 0 1 19.38 22h-6.76a2 2 0 0 1-1.79-1.11L9.38 18h-.52-1.14-2.91c-.31 0-.6-.15-.79-.39-.19-.25-.25-.57-.17-.87l3.44-12c.12-.44.51-.74.97-.74h15.48c.46 0 .85.3.97.74l3.44 12c.08.3.02.62-.17.87-.19.24-.48.39-.79.39zM23.74 5H8.26L5.33 16h4.05c.76 0 1.45.42 1.79 1.1l1.45 2.9h6.76l1.45-2.9a1.99 1.99 0 0 1 1.79-1.1h4.05L23.74 5z" fill="#F29B11"/></svg>