<svg xmlns="http://www.w3.org/2000/svg" width="28" height="27" viewBox="0 0 28 27"><path d="M27.5 10.15c-.24-.68-.84-1.18-1.57-1.29l-7.08-1.05-3.07-6.39C15.45.75 14.76.32 14 .32s-1.45.43-1.78 1.1L9.15 7.81 2.07 8.86c-.73.11-1.33.61-1.57 1.29-.23.68-.06 1.43.46 1.94l5.18 5.18-1.2 7.18a1.9 1.9 0 0 0 .81 1.88c.34.23.73.34 1.13.34.33 0 .65-.08.95-.23L14 23.11l6.17 3.33c.3.15.62.23.95.23.4 0 .79-.11 1.13-.34a1.9 1.9 0 0 0 .81-1.88l-1.21-7.18 5.19-5.18c.52-.51.69-1.26.46-1.94zm-7.05 5.78c-.44.44-.63 1.05-.53 1.65l1.2 7.18-6.17-3.32a2 2 0 0 0-1.9 0l-6.17 3.32 1.2-7.18c.1-.6-.09-1.21-.53-1.65l-5.19-5.18L9.44 9.7c.65-.1 1.21-.5 1.48-1.08L14 2.24l3.08 6.38c.27.58.83.98 1.48 1.08l7.08 1.05-5.19 5.18z" fill="#0C0C0C"/></svg>