<svg xmlns="http://www.w3.org/2000/svg" width="32" height="32" viewBox="0 0 32 32"><path d="M31.11 28.33c-.2-.13-3.85-2.52-9.27-3.69 1.99-2.53 3.26-5.92 3.81-8.17.75-3.13.46-9.25-2.55-13.07C21.35 1.18 18.89 0 16 0c-2.89 0-5.35 1.18-7.1 3.4-3.01 3.82-3.3 9.94-2.55 13.07.55 2.25 1.82 5.64 3.81 8.17-5.42 1.17-9.07 3.56-9.27 3.69-.73.49-1.06 1.41-.8 2.25C.34 31.42 1.12 32 2 32h28c.88 0 1.66-.58 1.91-1.42.26-.84-.07-1.76-.8-2.25zM20.27 23.4l-.33.41c-2.39 2.74-5.49 2.74-7.88 0l-.33-.41c-2.78-3.53-4.16-8.2-3.57-12.65C8.71 6.47 11.16 2 16 2s7.29 4.47 7.84 8.75c.59 4.45-.79 9.12-3.57 12.65zM2 30c.14-.09 3.53-2.31 8.59-3.41l2.48-.54c.89.59 1.86.95 2.93.95s2.04-.36 2.93-.95l2.48.54c5.02 1.09 8.4 3.28 8.59 3.41H2z" fill="#FFF"/></svg>