<svg xmlns="http://www.w3.org/2000/svg" width="29" height="29" viewBox="0 0 29 29"><path d="M14.5.55C6.8.55.55 6.79.55 14.5c0 7.7 6.25 13.95 13.95 13.95 7.7 0 13.95-6.25 13.95-13.95C28.45 6.79 22.2.55 14.5.55zm12.13 13.5h-5.4c-.05-1.99-.4-3.9-1.03-5.64 1.21-.51 2.33-1.18 3.36-1.98 1.82 2.04 2.96 4.7 3.07 7.62zM14 26.62c-1.49-1.24-2.75-2.86-3.67-4.74 1.18-.37 2.43-.57 3.72-.61v5.36c-.02 0-.03-.01-.05-.01zm1-24.25c1.69 1.42 3.08 3.31 4.02 5.52-1.29.44-2.65.69-4.07.74V2.37H15zm1.5.16c2.48.41 4.71 1.57 6.44 3.25-.94.72-1.97 1.34-3.08 1.8-.82-1.94-1.97-3.66-3.36-5.05zm-2.45-.16v6.26c-1.42-.05-2.78-.3-4.07-.74.94-2.21 2.33-4.1 4.02-5.52h.05zM9.14 7.58C8.03 7.12 7 6.5 6.06 5.78a12.06 12.06 0 0 1 6.44-3.25c-1.39 1.39-2.54 3.11-3.36 5.05zm.5 1.14c1.39.48 2.87.76 4.41.81v4.52H8.67c.05-1.89.38-3.69.97-5.33zm4.41 6.23v5.42c-1.42.04-2.79.28-4.09.69-.77-1.85-1.23-3.92-1.29-6.11h5.38zM12.5 26.47c-2.22-.37-4.24-1.34-5.89-2.75.89-.61 1.85-1.13 2.87-1.53.79 1.63 1.82 3.08 3.02 4.28zm2.45.16v-5.36c1.29.04 2.54.24 3.72.61-.92 1.88-2.18 3.5-3.67 4.74-.02 0-.03.01-.05.01zm4.57-4.44c1.02.4 1.98.92 2.87 1.53a12.122 12.122 0 0 1-5.89 2.75c1.2-1.2 2.23-2.65 3.02-4.28zm-.48-1.13c-1.3-.41-2.67-.65-4.09-.69v-5.42h5.38c-.06 2.19-.52 4.26-1.29 6.11zm-4.09-7.01V9.53c1.54-.05 3.02-.33 4.4-.81.6 1.64.93 3.44.98 5.33h-5.38zM5.44 6.43c1.02.8 2.15 1.47 3.36 1.98-.63 1.74-.98 3.65-1.03 5.64h-5.4c.11-2.92 1.25-5.58 3.07-7.62zm-3.07 8.52h5.4c.06 2.3.54 4.47 1.35 6.42-1.14.45-2.2 1.04-3.18 1.74-2.12-2.1-3.45-4.98-3.57-8.16zm20.69 8.16c-.98-.7-2.04-1.29-3.18-1.74.81-1.95 1.29-4.12 1.35-6.42h5.4c-.12 3.18-1.45 6.06-3.57 8.16z" fill="#0C0C0C"/></svg>